<?xml version="1.0" standalone="no"?>
<!DOCTYPE svg PUBLIC "-//W3C//DTD SVG 20010904//EN"
 "http://www.w3.org/TR/2001/REC-SVG-20010904/DTD/svg10.dtd">
<svg version="1.0" xmlns="http://www.w3.org/2000/svg"
 width="512.000000pt" height="512.000000pt" viewBox="0 0 512.000000 512.000000"
 preserveAspectRatio="xMidYMid meet">
<metadata>
Created by potrace 1.14, written by Peter Selinger 2001-2017
</metadata>
<g transform="translate(0.000000,512.000000) scale(0.100000,-0.100000)"
fill="#000000" stroke="none">
<path d="M2315 5109 c-597 -61 -1142 -319 -1564 -740 -406 -406 -648 -901
-733 -1494 -17 -118 -17 -512 0 -630 85 -593 328 -1088 733 -1494 406 -405
902 -649 1494 -733 118 -17 512 -17 630 0 490 70 928 256 1290 549 515 416
840 999 937 1678 17 118 17 512 0 630 -84 592 -328 1088 -733 1494 -396 396
-880 638 -1449 726 -125 19 -477 28 -605 14z m100 -843 c12 -8 138 -178 281
-378 143 -199 568 -793 944 -1318 375 -525 691 -968 701 -985 56 -91 -31 -203
-135 -174 -33 9 -106 109 -998 1357 -907 1268 -963 1350 -966 1393 -4 56 14
89 61 113 35 18 77 15 112 -8z m-58 -378 c114 -152 156 -215 149 -226 -13 -21
-209 -153 -216 -145 -4 4 -39 54 -79 110 l-72 102 -109 -81 c-66 -48 -107 -85
-103 -92 6 -10 132 -197 138 -204 2 -2 50 31 108 72 58 42 109 76 114 76 5 0
44 -48 87 -106 l79 -107 -24 -18 c-13 -10 -63 -46 -111 -79 l-87 -60 -77 105
c-44 61 -82 104 -89 101 -24 -9 -204 -141 -205 -150 0 -5 31 -53 70 -107 39
-54 70 -101 70 -106 -1 -7 -190 -143 -210 -151 -5 -2 -41 42 -80 97 -40 56
-77 101 -82 101 -6 0 -55 -31 -109 -70 -54 -38 -101 -70 -106 -70 -4 0 -41 48
-82 105 -41 58 -76 105 -79 105 -3 0 -205 -143 -221 -156 -2 -2 29 -48 68
-103 39 -55 73 -106 76 -113 3 -8 -32 -39 -86 -77 l-90 -63 17 -27 c9 -14 44
-63 76 -108 l59 -82 89 65 c50 36 92 69 94 73 2 3 -29 51 -69 106 -41 55 -74
103 -75 107 0 6 205 158 214 158 4 0 127 -171 149 -206 5 -9 -24 -36 -90 -85
-54 -39 -102 -75 -106 -79 -5 -4 26 -55 67 -114 42 -58 76 -108 76 -111 0 -2
-40 -31 -89 -65 -49 -33 -92 -63 -95 -68 -5 -9 138 -215 154 -220 17 -6 191
129 183 142 -5 7 -39 56 -77 111 -68 96 -69 98 -49 114 11 9 59 44 106 79 l87
62 -75 103 c-41 57 -75 107 -75 111 0 3 48 42 107 85 l106 80 17 -22 c9 -12
44 -61 79 -110 39 -55 67 -85 74 -80 7 4 52 36 100 71 49 35 94 65 101 68 14
5 170 -202 162 -215 -6 -9 -204 -151 -211 -151 -2 0 -38 47 -80 105 -54 73
-81 103 -90 98 -63 -36 -204 -140 -201 -149 2 -6 36 -57 76 -113 40 -56 71
-103 69 -105 -2 -1 -50 -35 -106 -75 -57 -40 -103 -77 -103 -82 0 -8 128 -198
146 -218 4 -4 27 11 161 106 l62 44 60 -82 c33 -44 66 -90 73 -101 13 -19 18
-17 121 57 59 43 109 81 112 85 4 6 -102 161 -129 188 -11 12 -31 1 -121 -63
-59 -42 -109 -75 -110 -73 -11 11 -148 204 -152 214 -4 10 163 136 200 150 10
3 40 -29 93 -101 42 -58 83 -104 89 -101 7 2 57 37 113 76 l100 73 -78 107
-78 107 100 73 c56 39 106 74 112 76 6 2 47 -43 90 -101 53 -71 82 -103 90
-97 51 41 198 142 204 142 5 0 39 -43 76 -95 37 -52 71 -95 75 -95 5 0 26 13
47 28 21 15 69 49 106 76 l67 47 27 -41 c16 -24 23 -44 18 -49 -29 -26 -1445
-1031 -1472 -1045 -42 -21 -130 -23 -169 -3 -40 21 -66 52 -183 217 -57 80
-245 342 -418 584 -173 241 -320 454 -328 472 -28 67 -11 147 44 206 26 27
1194 876 1468 1067 1 1 33 -41 71 -91z m392 -548 c39 -54 74 -106 77 -114 4
-10 -27 -37 -100 -88 -58 -40 -103 -78 -101 -85 2 -6 36 -55 74 -107 39 -53
71 -98 71 -100 0 -5 -176 -132 -207 -149 -13 -8 -167 198 -158 213 3 4 50 40
106 80 63 45 99 77 95 85 -2 8 -34 54 -70 104 -36 50 -67 95 -68 100 -3 9 188
159 204 160 3 1 38 -44 77 -99z m-433 -332 l74 -106 -102 -72 c-57 -40 -107
-74 -113 -76 -12 -5 -158 202 -153 218 6 16 192 148 207 145 7 -1 46 -50 87
-109z m752 -115 c38 -54 72 -103 75 -110 4 -7 -33 -40 -97 -87 -57 -42 -106
-76 -108 -76 -6 0 -148 204 -149 214 -1 9 189 155 203 156 4 0 38 -44 76 -97z"/>
<path d="M1590 3333 c-58 -41 -105 -80 -104 -87 1 -8 123 -188 139 -205 2 -2
53 32 114 75 l110 77 -33 46 c-18 25 -50 71 -71 101 -21 30 -41 58 -44 61 -3
4 -53 -27 -111 -68z"/>
<path d="M2611 2380 c-52 -38 -98 -73 -104 -79 -13 -13 121 -203 137 -194 31
18 206 146 206 150 0 9 -133 193 -139 192 -3 0 -48 -31 -100 -69z"/>
<path d="M1730 1764 c-41 -30 -82 -59 -90 -64 -12 -7 -10 -15 15 -51 55 -77
117 -104 198 -87 48 10 108 49 102 65 -10 27 -131 193 -140 192 -5 0 -44 -25
-85 -55z"/>
</g>
</svg>
